<svg id="Layer_1" data-name="Layer 1" xmlns="http://www.w3.org/2000/svg" viewBox="0 0 177.82 62.23"><defs><style>.cls-1{fill:#df1771;}.cls-2{fill:#531c44;}</style></defs><title>logo</title><path class="cls-1" d="M78.27,54.07c-.18.42-.32.51-.74.51H74.62a.61.61,0,0,1-.69-.51L66,34.22c-.14-.28-.09-.65.32-.65H69a.66.66,0,0,1,.69.51l6.51,17.12h.09l6.46-17.12a.69.69,0,0,1,.69-.51h2.63c.46,0,.46.37.32.65Z"/><path class="cls-1" d="M90,27.17a2,2,0,1,1,2,2A2,2,0,0,1,90,27.17Z"/><path class="cls-1" d="M90.83,33.57h2.49a.46.46,0,0,1,.42.46V54a.41.41,0,0,1-.42.42H90.83a.46.46,0,0,1-.46-.42V34A.5.5,0,0,1,90.83,33.57Z"/><path class="cls-1" d="M100.56,37.84c-.32.18-.55.09-.65-.14L99.13,36c-.14-.28-.09-.42.23-.6a14.62,14.62,0,0,1,7.94-2.17c2,0,4.43.37,6.09,2.26,1.06,1.2,1.71,3,1.71,5.63V54a.41.41,0,0,1-.42.42h-2.17a.41.41,0,0,1-.42-.42v-.74h-.18a11.41,11.41,0,0,1-6.28,1.62,8.94,8.94,0,0,1-5.17-1.48,5.55,5.55,0,0,1-2.35-4.66c0-2.86,1.75-4.48,4.29-5.45a33,33,0,0,1,9.32-1.48v-.69a5.51,5.51,0,0,0-1.06-3.83A4.9,4.9,0,0,0,106.88,36,12,12,0,0,0,100.56,37.84Zm11.17,13.06V44.4a31.47,31.47,0,0,0-6.88.83c-2,.51-3.51,1.52-3.51,3.37,0,2.58,2.68,3.65,5.26,3.65A11.3,11.3,0,0,0,111.73,50.91Z"/><path class="cls-2" d="M123.89,36.07A7.27,7.27,0,0,1,130,33.2a7.77,7.77,0,0,1,4.71,1.38,6.22,6.22,0,0,1,2.22,3,7.46,7.46,0,0,1,2.77-3.23A8.06,8.06,0,0,1,144,33.2a7.76,7.76,0,0,1,5.68,2c1.34,1.29,2.22,3.32,2.22,6.37V54a.41.41,0,0,1-.42.42H148.9a.46.46,0,0,1-.46-.42V42.44a7.23,7.23,0,0,0-1.38-4.85,4.87,4.87,0,0,0-3.79-1.43,4.66,4.66,0,0,0-4.2,2.22,11.1,11.1,0,0,0-1.2,5.72V54a.41.41,0,0,1-.42.42h-2.54a.46.46,0,0,1-.46-.42V42.44a7.23,7.23,0,0,0-1.38-4.85,4.87,4.87,0,0,0-3.78-1.43,4.66,4.66,0,0,0-4.2,2.22,10.56,10.56,0,0,0-1.2,5.26V54a.41.41,0,0,1-.42.42h-2.54a.46.46,0,0,1-.46-.42V34a.5.5,0,0,1,.46-.46h2.35a.5.5,0,0,1,.46.46v2Z"/><path class="cls-2" d="M158.85,36.34a11.61,11.61,0,0,1,15.88,0,10.57,10.57,0,0,1,3.09,7.71,10.57,10.57,0,0,1-3.09,7.71,11.61,11.61,0,0,1-15.88,0,10.57,10.57,0,0,1-3.09-7.71A10.57,10.57,0,0,1,158.85,36.34Zm2.31,13.34a7.7,7.7,0,0,0,11.26,0,8.67,8.67,0,0,0,0-11.26,7.7,7.7,0,0,0-11.26,0,8.67,8.67,0,0,0,0,11.26Z"/><polygon class="cls-2" points="25.49 62.23 55.93 36.76 0 16.43 25.49 62.23"/><polygon class="cls-1" points="54.65 32.67 35.28 0 35.31 25.63 54.65 32.67"/></svg>